<svg width="16" height="16" viewBox="0 0 16 16" fill="none" xmlns="http://www.w3.org/2000/svg">
<path d="M6.75185 2.707C6.52252 3.68561 6.49133 4.70018 6.66012 5.69102C6.82892 6.68186 7.19428 7.62895 7.73472 8.47657C8.27516 9.32419 8.97976 10.0552 9.80706 10.6267C10.6344 11.1981 11.5677 11.5984 12.552 11.804C12.0345 12.3392 11.4147 12.765 10.7293 13.0562C10.044 13.3474 9.30705 13.4979 8.56235 13.499C8.49331 13.499 8.42327 13.5015 8.35323 13.499C7.05671 13.4533 5.81715 12.9552 4.84991 12.0911C3.88266 11.227 3.24885 10.0515 3.05859 8.76893C2.86833 7.48634 3.13365 6.17765 3.80844 5.07024C4.48322 3.96282 5.52485 3.12665 6.75235 2.707M7.49126 1.5C7.4619 1.5001 7.4326 1.50278 7.40371 1.508C5.81114 1.79126 4.37972 2.65334 3.38505 3.92826C2.39037 5.20319 1.90277 6.80081 2.01611 8.41354C2.12946 10.0263 2.83574 11.5401 3.99898 12.6635C5.16222 13.7869 6.70016 14.4405 8.31671 14.4985C8.39876 14.5015 8.4808 14.4985 8.56185 14.4985C9.6119 14.4992 10.6467 14.2471 11.5787 13.7637C12.5107 13.2802 13.3125 12.5796 13.9163 11.721C13.9652 11.647 13.9938 11.5614 13.9991 11.4729C14.0044 11.3844 13.9863 11.296 13.9466 11.2167C13.9069 11.1373 13.847 11.0699 13.7729 11.021C13.6988 10.9722 13.6132 10.9437 13.5246 10.9385C12.5252 10.8508 11.5593 10.5347 10.7016 10.0144C9.84396 9.49418 9.11747 8.7838 8.57831 7.9382C8.03915 7.09259 7.70175 6.1344 7.5922 5.13768C7.48265 4.14097 7.60388 3.13242 7.94651 2.19C7.97566 2.11457 7.98635 2.03326 7.97769 1.95286C7.96903 1.87246 7.94128 1.79529 7.89674 1.72778C7.8522 1.66028 7.79216 1.60438 7.72163 1.56476C7.6511 1.52514 7.57211 1.50294 7.49126 1.5Z" fill="#B0B6C2"/>
</svg>
