<svg width="16" height="16" viewBox="0 0 16 16" fill="none" xmlns="http://www.w3.org/2000/svg">
<g clip-path="url(#clip0_20_733)">
<path d="M8 3.75C7.15943 3.75 6.33774 3.99926 5.63883 4.46625C4.93992 4.93325 4.39518 5.59701 4.07351 6.3736C3.75184 7.15018 3.66768 8.00471 3.83166 8.82913C3.99565 9.65355 4.40042 10.4108 4.9948 11.0052C5.58917 11.5996 6.34645 12.0044 7.17087 12.1683C7.99529 12.3323 8.84982 12.2482 9.6264 11.9265C10.403 11.6048 11.0667 11.0601 11.5337 10.3612C12.0007 9.66226 12.25 8.84057 12.25 8C12.2483 6.87334 11.8 5.79329 11.0034 4.99662C10.2067 4.19995 9.12666 3.75165 8 3.75ZM8 11.25C7.35721 11.25 6.72886 11.0594 6.1944 10.7023C5.65994 10.3452 5.24338 9.83758 4.99739 9.24372C4.75141 8.64986 4.68705 7.99639 4.81245 7.36596C4.93785 6.73552 5.24738 6.15642 5.7019 5.7019C6.15642 5.24738 6.73552 4.93785 7.36596 4.81245C7.99639 4.68705 8.64986 4.75141 9.24372 4.99739C9.83758 5.24338 10.3452 5.65994 10.7023 6.1944C11.0594 6.72886 11.25 7.35721 11.25 8C11.25 8.86195 10.9076 9.6886 10.2981 10.2981C9.6886 10.9076 8.86195 11.25 8 11.25ZM7.5 2.25V1C7.5 0.867392 7.55268 0.740215 7.64645 0.646447C7.74021 0.552678 7.86739 0.5 8 0.5C8.13261 0.5 8.25979 0.552678 8.35355 0.646447C8.44732 0.740215 8.5 0.867392 8.5 1V2.25C8.5 2.38261 8.44732 2.50979 8.35355 2.60355C8.25979 2.69732 8.13261 2.75 8 2.75C7.86739 2.75 7.74021 2.69732 7.64645 2.60355C7.55268 2.50979 7.5 2.38261 7.5 2.25ZM2.69375 3.40625C2.63913 3.36142 2.59449 3.30565 2.56272 3.24253C2.53095 3.17941 2.51275 3.11034 2.50928 3.03976C2.50582 2.96918 2.51716 2.89865 2.5426 2.83272C2.56803 2.76679 2.60698 2.70692 2.65695 2.65695C2.70692 2.60698 2.76679 2.56803 2.83272 2.5426C2.89865 2.51716 2.96918 2.50582 3.03976 2.50928C3.11034 2.51275 3.17941 2.53095 3.24253 2.56272C3.30565 2.59449 3.36142 2.63913 3.40625 2.69375L4.2875 3.58125C4.38101 3.67498 4.43352 3.80198 4.43352 3.93438C4.43352 4.06677 4.38101 4.19377 4.2875 4.2875C4.19298 4.37951 4.06628 4.43099 3.93438 4.43099C3.80247 4.43099 3.67577 4.37951 3.58125 4.2875L2.69375 3.40625ZM2.25 8.5H1C0.867392 8.5 0.740215 8.44732 0.646447 8.35355C0.552678 8.25979 0.5 8.13261 0.5 8C0.5 7.86739 0.552678 7.74021 0.646447 7.64645C0.740215 7.55268 0.867392 7.5 1 7.5H2.25C2.38261 7.5 2.50979 7.55268 2.60355 7.64645C2.69732 7.74021 2.75 7.86739 2.75 8C2.75 8.13261 2.69732 8.25979 2.60355 8.35355C2.50979 8.44732 2.38261 8.5 2.25 8.5ZM4.2875 11.7125C4.38101 11.8062 4.43352 11.9332 4.43352 12.0656C4.43352 12.198 4.38101 12.325 4.2875 12.4187L3.40625 13.3062C3.31027 13.398 3.18277 13.4494 3.05 13.45C2.91748 13.4482 2.79041 13.3969 2.69375 13.3062C2.59986 13.2115 2.54719 13.0834 2.54719 12.95C2.54719 12.8166 2.59986 12.6885 2.69375 12.5938L3.58125 11.7125C3.67498 11.619 3.80198 11.5665 3.93438 11.5665C4.06677 11.5665 4.19377 11.619 4.2875 11.7125ZM8.5 13.75V15C8.5 15.1326 8.44732 15.2598 8.35355 15.3536C8.25979 15.4473 8.13261 15.5 8 15.5C7.86739 15.5 7.74021 15.4473 7.64645 15.3536C7.55268 15.2598 7.5 15.1326 7.5 15V13.75C7.5 13.6174 7.55268 13.4902 7.64645 13.3964C7.74021 13.3027 7.86739 13.25 8 13.25C8.13261 13.25 8.25979 13.3027 8.35355 13.3964C8.44732 13.4902 8.5 13.6174 8.5 13.75ZM13.3062 12.5938C13.4001 12.6885 13.4528 12.8166 13.4528 12.95C13.4528 13.0834 13.4001 13.2115 13.3062 13.3062C13.2096 13.3969 13.0825 13.4482 12.95 13.45C12.8172 13.4494 12.6897 13.398 12.5938 13.3062L11.7125 12.4187C11.6263 12.3236 11.58 12.199 11.5832 12.0707C11.5863 11.9424 11.6387 11.8202 11.7295 11.7295C11.8202 11.6387 11.9424 11.5863 12.0707 11.5832C12.199 11.58 12.3236 11.6263 12.4187 11.7125L13.3062 12.5938ZM15.5 8C15.5 8.13261 15.4473 8.25979 15.3536 8.35355C15.2598 8.44732 15.1326 8.5 15 8.5H13.75C13.6174 8.5 13.4902 8.44732 13.3964 8.35355C13.3027 8.25979 13.25 8.13261 13.25 8C13.25 7.86739 13.3027 7.74021 13.3964 7.64645C13.4902 7.55268 13.6174 7.5 13.75 7.5H15C15.1326 7.5 15.2598 7.55268 15.3536 7.64645C15.4473 7.74021 15.5 7.86739 15.5 8ZM11.7125 4.2875C11.619 4.19377 11.5665 4.06677 11.5665 3.93438C11.5665 3.80198 11.619 3.67498 11.7125 3.58125L12.5938 2.69375C12.6909 2.61402 12.8142 2.57327 12.9398 2.57944C13.0653 2.5856 13.184 2.63824 13.2729 2.72711C13.3618 2.81597 13.4144 2.93472 13.4206 3.06024C13.4267 3.18577 13.386 3.3091 13.3062 3.40625L12.4187 4.2875C12.3242 4.37951 12.1975 4.43099 12.0656 4.43099C11.9337 4.43099 11.807 4.37951 11.7125 4.2875Z" fill="#494949"/>
</g>
<defs>
<clipPath id="clip0_20_733">
<rect width="16" height="16" fill="white"/>
</clipPath>
</defs>
</svg>
